<svg width="283" height="64" viewBox="0 0 283 64" fill="none" xmlns="http://www.w3.org/2000/svg">
<path d="M141 16C141.003 13.8115 141.734 11.6768 143.098 9.90332C144.463 8.12986 146.392 6.81617 148.586 6.15439C150.781 5.49261 153.13 5.51873 155.307 6.22973C157.485 6.94074 159.378 8.29715 160.71 10.096L175.22 2.19002C171.666 -2.56798 166.505 -6.09198 160.648 -7.73398C154.791 -9.37598 148.604 -9.03998 142.985 -6.77798C137.366 -4.51598 132.656 -0.458977 129.693 4.59102C126.73 10.141 125.676 16.581 126.706 22.851L141.38 25.111C141.126 22.111 141 19.0662 141 16Z" fill="black"/>
<path d="M283 32C283 49.673 268.673 64 251 64C233.327 64 219 49.673 219 32C219 14.327 233.327 0 251 0C268.673 0 283 14.327 283 32ZM230.24 32C230.24 43.456 239.544 52.76 251 52.76C262.456 52.76 271.76 43.456 271.76 32C271.76 20.544 262.456 11.24 251 11.24C239.544 11.24 230.24 20.544 230.24 32Z" fill="black"/>
<path d="M37.74 12.96C41.68 12.96 44.66 14.4 46.68 17.28L52.9 13.26C49.62 8.82 44.86 6.6 38.62 6.6C26.5 6.6 20.44 14.28 20.44 29.64C20.44 45 26.5 52.68 38.62 52.68C44.86 52.68 49.62 50.46 52.9 46.02L46.68 42C44.66 44.88 41.68 46.32 37.74 46.32C32.14 46.32 29.34 42.24 29.34 29.64C29.34 17.04 32.14 12.96 37.74 12.96Z" fill="black"/>
<path d="M75.5486 53.28C82.6686 53.28 87.7886 50.16 91.0486 44.1L85.1686 40.68C83.2286 44.16 80.4686 46.02 76.5286 46.02C70.0886 46.02 66.5686 42.12 66.5686 29.64C66.5686 17.16 70.0886 13.26 76.5286 13.26C80.4686 13.26 83.2286 15.12 85.1686 18.6L91.0486 15.18C87.7886 9.12 82.6686 6 75.5486 6C63.9686 6 57.7286 13.86 57.7286 29.64C57.7286 45.42 63.9686 53.28 75.5486 53.28Z" fill="black"/>
<path d="M122.1 53.28C134.22 53.28 140.28 45.6 140.28 30.24C140.28 14.88 134.22 7.2 122.1 7.2C109.98 7.2 103.92 14.88 103.92 30.24C103.92 45.6 109.98 53.28 122.1 53.28ZM122.1 46.32C116.5 46.32 113.7 42.24 113.7 30.24C113.7 18.24 116.5 14.16 122.1 14.16C127.7 14.16 130.5 18.24 130.5 30.24C130.5 42.24 127.7 46.32 122.1 46.32Z" fill="black"/>
<path d="M189.84 52.68V32.64L206.16 52.68H216V7.8H207.12V28.38L190.8 7.8H180.96V52.68H189.84Z" fill="black"/>
</svg>
